<svg width="40" height="40" viewBox="0 0 40 40" fill="none" xmlns="http://www.w3.org/2000/svg">
<path d="M16.7933 18.3334C17.7933 18.3334 18.6033 19.0834 18.585 20C18.585 20.9167 17.795 21.6667 16.7933 21.6667C15.81 21.6667 15 20.9167 15 20C15 19.0834 15.7917 18.3334 16.7933 18.3334ZM23.2067 18.3334C24.2083 18.3334 25 19.0834 25 20C25 20.9167 24.2083 21.6667 23.2067 21.6667C22.2233 21.6667 21.415 20.9167 21.415 20C21.415 19.0834 22.205 18.3334 23.2067 18.3334ZM31.485 3.33337C33.4233 3.33337 35 4.94337 35 6.93837V38.3334L31.315 35.0084L29.24 33.0484L27.045 30.965L27.955 34.2034H8.515C6.57667 34.2034 5 32.5934 5 30.5984V6.93837C5 4.94337 6.57667 3.33337 8.515 3.33337H31.4833H31.485ZM24.8683 26.1884C28.6567 26.0667 30.115 23.5284 30.115 23.5284C30.115 17.8934 27.645 13.325 27.645 13.325C25.1783 11.4367 22.8283 11.4884 22.8283 11.4884L22.5883 11.7684C25.5033 12.6784 26.8567 13.9917 26.8567 13.9917C25.2651 13.095 23.5111 12.5239 21.6967 12.3117C20.5457 12.1817 19.3832 12.1929 18.235 12.345C18.1317 12.345 18.045 12.3634 17.9433 12.38C17.3433 12.4334 15.885 12.66 14.0517 13.4834C13.4183 13.78 13.04 13.9917 13.04 13.9917C13.04 13.9917 14.4633 12.6084 17.5483 11.6984L17.3767 11.4884C17.3767 11.4884 15.0283 11.4367 12.56 13.3267C12.56 13.3267 10.0917 17.8934 10.0917 23.5284C10.0917 23.5284 11.5317 26.065 15.32 26.1884C15.32 26.1884 15.9533 25.4017 16.47 24.7367C14.2917 24.07 13.47 22.67 13.47 22.67C13.47 22.67 13.64 22.7934 13.9483 22.9684C13.965 22.985 13.9817 23.0034 14.0167 23.02C14.0683 23.0567 14.12 23.0734 14.1717 23.1084C14.6 23.3534 15.0283 23.545 15.4217 23.7034C16.125 23.9834 16.965 24.2634 17.9433 24.4567C19.4089 24.744 20.9157 24.7496 22.3833 24.4734C23.2382 24.3208 24.0722 24.0685 24.8683 23.7217C25.4683 23.4934 26.1367 23.16 26.84 22.6884C26.84 22.6884 25.9833 24.1234 23.7367 24.7717C24.2517 25.4367 24.87 26.1884 24.87 26.1884H24.8683Z" fill="#02BAF1"/>
</svg>
