<svg width="48" height="48" viewBox="0 0 48 48" fill="none" xmlns="http://www.w3.org/2000/svg">
<path d="M40.3496 14.3787C40.4462 14.2441 40.3035 14.0703 40.149 14.1301C39.0511 14.5557 37.9037 14.8428 36.7333 14.9843C38.0365 14.2058 39.0421 13.0206 39.5998 11.6175C39.6566 11.4746 39.5005 11.3469 39.3659 11.4213C38.1547 12.0902 36.8484 12.5718 35.4915 12.8492C35.4347 12.8609 35.3761 12.8415 35.3363 12.7994C34.318 11.725 32.9776 11.0096 31.5163 10.7624C30.0244 10.51 28.4909 10.7599 27.1563 11.4729C25.8217 12.186 24.7616 13.3218 24.1421 14.7024C23.5531 16.015 23.3941 17.4781 23.6846 18.8833C23.7072 18.9924 23.6218 19.0953 23.5107 19.0884C20.8706 18.9244 18.2911 18.2222 15.9311 17.0241C13.5771 15.8289 11.4925 14.1663 9.8044 12.1388C9.72948 12.0488 9.58748 12.0604 9.5329 12.164C9.00761 13.1608 8.73259 14.2718 8.73333 15.401C8.7312 16.5249 9.00703 17.632 9.53626 18.6236C10.0655 19.6151 10.8317 20.4605 11.7667 21.0843C10.7751 21.0573 9.80292 20.8122 8.91875 20.3677C8.8048 20.3105 8.66812 20.392 8.67405 20.5194C8.743 22.0015 9.28709 23.4894 10.2289 24.6309C11.2311 25.8457 12.6221 26.677 14.1667 26.9843C13.5721 27.1652 12.9548 27.2606 12.3333 27.2676C11.9951 27.2637 11.6575 27.2387 11.3226 27.1929C11.1984 27.1759 11.0969 27.2939 11.1404 27.4115C11.6011 28.6573 12.415 29.7444 13.4851 30.5379C14.6292 31.3862 16.0093 31.8569 17.4333 31.8843C15.0287 33.7764 12.0598 34.8091 9 34.8176C8.68559 34.8187 8.37133 34.8085 8.0578 34.7871C7.88112 34.7751 7.79986 35.0105 7.95216 35.1008C10.9334 36.8701 14.341 37.8052 17.8167 37.801C20.3828 37.8276 22.9286 37.3427 25.3052 36.3744C27.6818 35.4062 29.8417 33.9741 31.6587 32.1618C33.4756 30.3495 34.9133 28.1933 35.8876 25.8191C36.8619 23.445 37.3534 20.9005 37.3333 18.3343V17.5346C37.3333 17.482 37.3582 17.4325 37.4002 17.4008C38.5307 16.5472 39.5248 15.5281 40.3496 14.3787Z" fill="#02BAF1"/>
</svg>
